<svg xmlns="http://www.w3.org/2000/svg" xmlns:xlink="http://www.w3.org/1999/xlink" width="42" height="35" viewBox="0 0 42 35">
  <defs>
    <linearGradient id="linear-gradient" x1="0.5" x2="0.5" y2="1.13" gradientUnits="objectBoundingBox">
      <stop offset="0" stop-color="#daae46"/>
      <stop offset="1" stop-color="#3a195e"/>
    </linearGradient>
    <filter id="Rectangle_8" x="3" y="4" width="28" height="28" filterUnits="userSpaceOnUse">
      <feOffset dy="3" input="SourceAlpha"/>
      <feGaussianBlur stdDeviation="3" result="blur"/>
      <feFlood flood-opacity="0.161"/>
      <feComposite operator="in" in2="blur"/>
      <feComposite in="SourceGraphic"/>
    </filter>
    <filter id="Union_1" x="0" y="0" width="42" height="33" filterUnits="userSpaceOnUse">
      <feOffset dx="-3" dy="-3" input="SourceAlpha"/>
      <feGaussianBlur stdDeviation="3" result="blur-2"/>
      <feFlood flood-opacity="0.161"/>
      <feComposite operator="in" in2="blur-2"/>
      <feComposite in="SourceGraphic"/>
    </filter>
  </defs>
  <g id="Group_4" data-name="Group 4" transform="translate(8 3)">
    <rect id="Rectangle_9" data-name="Rectangle 9" width="32" height="32" rx="16" fill="url(#linear-gradient)"/>
    <g id="Group_1" data-name="Group 1" transform="translate(4 6.5)">
      <g transform="matrix(1, 0, 0, 1, -12, -9.5)" filter="url(#Rectangle_8)">
        <rect id="Rectangle_8-2" data-name="Rectangle 8" width="10" height="10" rx="5" transform="translate(12 10)" fill="#fce160"/>
      </g>
      <g transform="matrix(1, 0, 0, 1, -12, -9.5)" filter="url(#Union_1)">
        <path id="Union_1-2" data-name="Union 1" d="M19.051,15H4.207v0A4.33,4.33,0,0,1,0,10.67v-.09a4.329,4.329,0,0,1,4.3-4.33A7.424,7.424,0,0,1,18.652,5.016q.2-.016.4-.016A4.948,4.948,0,0,1,24,9.949v.1A4.949,4.949,0,0,1,19.051,15Z" transform="translate(12 12)" fill="rgba(255,255,255,0.8)"/>
      </g>
    </g>
  </g>
</svg>
