<svg xmlns="http://www.w3.org/2000/svg" xmlns:xlink="http://www.w3.org/1999/xlink" width="68" height="64" viewBox="0 0 68 64">
  <defs>
    <linearGradient id="linear-gradient" x1="0.5" x2="0.5" y2="1.13" gradientUnits="objectBoundingBox">
      <stop offset="0" stop-color="#daae46"/>
      <stop offset="1" stop-color="#3a195e"/>
    </linearGradient>
    <filter id="Rectangle_8" x="3" y="9" width="38" height="38" filterUnits="userSpaceOnUse">
      <feOffset dy="3" input="SourceAlpha"/>
      <feGaussianBlur stdDeviation="3" result="blur"/>
      <feFlood flood-opacity="0.161"/>
      <feComposite operator="in" in2="blur"/>
      <feComposite in="SourceGraphic"/>
    </filter>
    <filter id="Union_1" x="0" y="7" width="67" height="48" filterUnits="userSpaceOnUse">
      <feOffset dx="-3" dy="-3" input="SourceAlpha"/>
      <feGaussianBlur stdDeviation="3" result="blur-2"/>
      <feFlood flood-opacity="0.161"/>
      <feComposite operator="in" in2="blur-2"/>
      <feComposite in="SourceGraphic"/>
    </filter>
  </defs>
  <g id="Group_2" data-name="Group 2" transform="translate(4)">
    <rect id="Rectangle_9" data-name="Rectangle 9" width="64" height="64" rx="15" fill="url(#linear-gradient)"/>
    <g id="Group_1" data-name="Group 1" transform="translate(7.5 14.5)">
      <g transform="matrix(1, 0, 0, 1, -11.5, -14.5)" filter="url(#Rectangle_8)">
        <rect id="Rectangle_8-2" data-name="Rectangle 8" width="20" height="20" rx="10" transform="translate(12 15)" fill="#fce160"/>
      </g>
      <g transform="matrix(1, 0, 0, 1, -11.5, -14.5)" filter="url(#Union_1)">
        <path id="Union_1-2" data-name="Union 1" d="M38.794,30H8.588A8.75,8.75,0,0,1,8.75,12.5h.07a15.159,15.159,0,0,1,29.189-2.47q.389-.03.785-.03H39a10,10,0,0,1,0,20Z" transform="translate(12 19)" fill="rgba(255,255,255,0.8)"/>
      </g>
    </g>
  </g>
</svg>
