<svg id="Group_3" data-name="Group 3" xmlns="http://www.w3.org/2000/svg" xmlns:xlink="http://www.w3.org/1999/xlink" width="128" height="128" viewBox="0 0 128 128">
  <defs>
    <linearGradient id="linear-gradient" x1="0.5" x2="0.5" y2="1.13" gradientUnits="objectBoundingBox">
      <stop offset="0" stop-color="#daae46"/>
      <stop offset="1" stop-color="#3a195e"/>
    </linearGradient>
    <filter id="Rectangle_8" x="6" y="23" width="58" height="58" filterUnits="userSpaceOnUse">
      <feOffset dy="3" input="SourceAlpha"/>
      <feGaussianBlur stdDeviation="3" result="blur"/>
      <feFlood flood-opacity="0.161"/>
      <feComposite operator="in" in2="blur"/>
      <feComposite in="SourceGraphic"/>
    </filter>
    <filter id="Union_1" x="3" y="27" width="115" height="78" filterUnits="userSpaceOnUse">
      <feOffset dx="-3" dy="-3" input="SourceAlpha"/>
      <feGaussianBlur stdDeviation="3" result="blur-2"/>
      <feFlood flood-opacity="0.161"/>
      <feComposite operator="in" in2="blur-2"/>
      <feComposite in="SourceGraphic"/>
    </filter>
  </defs>
  <rect id="Rectangle_9" data-name="Rectangle 9" width="128" height="128" rx="20" fill="url(#linear-gradient)"/>
  <g transform="matrix(1, 0, 0, 1, 0, 0)" filter="url(#Rectangle_8)">
    <rect id="Rectangle_8-2" data-name="Rectangle 8" width="40" height="40" rx="20" transform="translate(15 29)" fill="#fce160"/>
  </g>
  <g transform="matrix(1, 0, 0, 1, 0, 0)" filter="url(#Union_1)">
    <path id="Union_1-2" data-name="Union 1" d="M274,25H214v-.007A17.5,17.5,0,0,1,214.415-10,30.007,30.007,0,0,1,244-35a30.013,30.013,0,0,1,28.317,20.07Q273.149-15,274-15a20,20,0,1,1,0,40Z" transform="translate(-182 74)" fill="rgba(255,255,255,0.8)"/>
  </g>
</svg>
