<svg xmlns="http://www.w3.org/2000/svg" viewBox="0 -0.5 32 32" shape-rendering="crispEdges">
<metadata>Made with Pixels to Svg https://codepen.io/shshaw/pen/XbxvNj</metadata>
<path stroke="#8ad0e8" d="M14 11h5M13 12h1M19 12h1M11 13h2M20 13h2M10 14h1M22 14h1M10 15h1M22 15h1M7 16h3M23 16h2M5 17h3M25 17h1M4 18h1M26 18h1M4 19h1M26 19h1M4 20h1M26 20h1M5 21h21" />
<path stroke="#ffffff" d="M14 12h5M13 13h7M11 14h10M12 15h10M10 16h2M13 16h8M8 17h5M14 17h6M21 17h2M6 18h6M20 18h5M6 19h5M20 19h5" />
<path stroke="#c0e6f4" d="M21 14h1M11 15h1M12 16h1M21 16h2M13 17h1M20 17h1M23 17h2M5 18h1M12 18h8M25 18h1M5 19h1M11 19h9M25 19h1M5 20h21" />
</svg>