<svg xmlns="http://www.w3.org/2000/svg" viewBox="0 -0.5 32 32" shape-rendering="crispEdges">
<metadata>Made with Pixels to Svg https://codepen.io/shshaw/pen/XbxvNj</metadata>
<path stroke="#8ad0e8" d="M10 1h1M8 2h2M11 2h1M7 3h1M11 3h1M7 4h1M11 4h1M6 5h2M11 5h1M17 5h5M9 6h2M17 6h1M22 6h1M17 7h1M23 7h2M17 8h1M25 8h1M17 9h1M25 9h1M17 10h2M26 10h1M18 11h8M11 16h2M10 17h1M13 17h1M10 18h1M13 18h1M24 18h5M10 19h1M13 19h1M23 19h1M29 19h1M10 20h1M13 20h1M23 20h1M30 20h1M11 21h2M23 21h1M30 21h1M4 22h4M23 22h1M30 22h1M2 23h3M8 23h1M24 23h6M1 24h1M8 24h1M13 24h7M1 25h1M8 25h1M12 25h1M20 25h1M1 26h1M8 26h1M12 26h1M20 26h1M2 27h6M12 27h1M20 27h1M12 28h1M20 28h1M13 29h7" />
<path stroke="#ffffff" d="M10 2h1M8 3h3M9 4h2M8 5h1M10 5h1M18 6h4M18 7h5M18 8h6M18 9h7M19 10h5M11 17h2M11 18h1M25 19h2M24 20h5M24 21h5M5 23h3M3 24h5M3 25h5M14 25h6" />
<path stroke="#c0e6f4" d="M8 4h1M9 5h1M24 8h1M24 10h2M12 18h1M11 19h2M24 19h1M27 19h2M11 20h2M29 20h1M29 21h1M24 22h6M2 24h1M2 25h1M13 25h1M2 26h6M13 26h7M13 27h7M13 28h7" />
</svg>