<svg xmlns="http://www.w3.org/2000/svg" viewBox="0 -0.5 32 32" shape-rendering="crispEdges">
<metadata>Made with Pixels to Svg https://codepen.io/shshaw/pen/XbxvNj</metadata>
<path stroke="#7b777e" d="M14 11h5M13 12h1M19 12h1M11 13h2M20 13h2M10 14h1M22 14h1M10 15h1M22 15h1M7 16h3M23 16h2M5 17h3M25 17h1M4 18h1M26 18h1M4 19h1M26 19h1M4 20h1M26 20h1M5 21h21" />
<path stroke="#847e87" d="M14 12h5M13 13h7M11 14h10M12 15h10M10 16h2M13 16h8M8 17h5M14 17h6M21 17h2M6 18h6M20 18h5M6 19h5M20 19h5" />
<path stroke="#555058" d="M21 14h1M11 15h1M12 16h1M21 16h2M13 17h1M20 17h1M23 17h2M5 18h1M12 18h8M25 18h1M5 19h1M11 19h9M25 19h1M5 20h21" />
<path stroke="#c6bf38" d="M8 22h1M10 22h1M20 22h1M23 22h1M7 23h1M10 23h1M19 23h1M22 23h1M6 24h1M9 24h1M18 24h1M21 24h1M7 25h1M10 25h1M17 25h1M20 25h1M8 26h1M11 26h1M16 26h1M19 26h1M9 27h1M11 27h1M15 27h1M18 27h1M10 28h1M16 28h1M19 28h1M17 29h1M19 29h1M18 30h1" />
<path stroke="#d7e127" d="M9 22h1M22 22h1M8 23h2M21 23h1M8 24h1M20 24h1M8 25h1M18 25h2M9 26h2M17 26h1M17 27h1M17 28h1M18 29h1" />
<path stroke="#38a4ba" d="M13 22h1M5 23h1M15 23h1M23 25h1M21 26h1M6 27h1M12 27h1M22 29h1M9 30h1M15 30h1" />
<path stroke="#d1ca3b" d="M21 22h1M20 23h1M7 24h1M19 24h1M9 25h1M18 26h1M10 27h1M16 27h1M18 28h1" />
<path stroke="#5fcde4" d="M13 23h1M5 24h1M15 24h1M23 26h1M21 27h1M6 28h1M12 28h1M22 30h1M9 31h1M15 31h1" />
</svg>